<?xml version="1.0" standalone="no"?>
<!DOCTYPE svg PUBLIC "-//W3C//DTD SVG 20010904//EN"
 "http://www.w3.org/TR/2001/REC-SVG-20010904/DTD/svg10.dtd">
<svg version="1.0" xmlns="http://www.w3.org/2000/svg"
 width="920.000000pt" height="920.000000pt" viewBox="0 0 920.000000 920.000000"
 preserveAspectRatio="xMidYMid meet">

<g transform="translate(0.000000,920.000000) scale(0.100000,-0.100000)"
fill="#000000" stroke="none">
<path d="M4125 8809 c-109 -13 -218 -45 -313 -91 -158 -77 -295 -242 -309
-373 -11 -93 50 -180 163 -232 51 -23 54 -26 54 -61 0 -31 -6 -41 -37 -62 -91
-62 -123 -168 -67 -223 61 -61 208 -91 454 -91 168 -1 225 5 413 41 43 8 85
12 92 9 8 -3 24 -24 35 -46 27 -53 34 -47 16 12 l-13 46 116 38 c64 21 122 40
130 42 12 3 13 -12 8 -95 -6 -87 -5 -102 13 -131 20 -32 40 -35 40 -6 0 8 11
37 25 65 28 54 90 102 149 115 41 9 46 18 46 96 0 37 5 70 11 73 5 4 14 17 19
29 5 14 23 27 47 34 145 43 200 155 137 280 -87 176 -455 424 -736 497 -140
37 -349 51 -493 34z"/>
<path d="M3917 7639 c-21 -12 -47 -61 -47 -89 0 -51 49 -100 100 -100 26 0 77
45 84 76 20 79 -69 153 -137 113z m108 -74 c0 -22 -31 -33 -47 -17 -17 17 -1
44 24 40 15 -2 23 -10 23 -23z"/>
<path d="M4429 7611 c-31 -31 -39 -83 -19 -122 13 -24 61 -49 96 -49 35 0 94
59 94 95 0 92 -107 140 -171 76z m136 -46 c0 -21 -31 -33 -46 -18 -5 5 -7 17
-3 27 9 24 49 17 49 -9z"/>
<path d="M5149 7373 l-24 -28 28 24 c15 14 27 26 27 28 0 8 -8 1 -31 -24z"/>
<path d="M3695 7179 c-102 -13 -252 -63 -312 -104 -38 -26 -58 -47 -73 -82
-11 -27 -43 -70 -70 -98 -52 -54 -120 -155 -167 -250 -78 -155 -166 -458 -198
-676 -22 -158 -25 -149 48 -191 146 -85 336 -114 544 -82 l32 5 -6 -180 c-4
-117 -2 -185 4 -193 6 -7 13 -74 17 -148 11 -234 27 -432 40 -526 11 -74 20
-101 45 -138 18 -25 35 -46 39 -46 4 -1 20 -11 36 -24 l28 -24 -40 -51 c-28
-35 -39 -57 -35 -71 4 -14 -2 -28 -16 -41 -33 -31 -31 -53 20 -264 60 -245 85
-313 123 -336 18 -12 45 -18 65 -17 24 2 35 -2 36 -12 1 -8 5 -121 9 -250 9
-297 31 -856 51 -1245 8 -165 19 -408 25 -540 6 -132 12 -259 15 -282 l4 -42
-92 -47 c-232 -118 -465 -302 -517 -409 -18 -38 -23 -66 -24 -133 l-1 -84 39
-34 c61 -52 146 -75 304 -81 172 -7 286 8 437 59 122 40 335 139 481 223 l81
47 7 66 c4 37 6 92 5 122 -5 132 -5 134 14 138 15 3 17 -7 18 -110 0 -62 4
-137 8 -167 7 -49 13 -59 62 -103 170 -152 372 -279 530 -332 106 -36 292 -53
390 -37 138 23 208 69 244 165 22 57 17 115 -16 182 -31 65 -233 267 -366 368
-57 43 -103 81 -103 85 0 3 -9 161 -20 351 -77 1336 -106 2116 -84 2252 6 36
7 37 31 21 30 -20 128 -13 172 13 57 34 59 68 13 329 -12 66 -18 132 -15 166
6 69 -10 122 -44 149 l-26 20 20 23 c12 12 31 42 44 67 20 39 23 58 22 140 -1
52 -8 149 -17 215 -42 327 -43 436 -4 666 l11 66 126 7 c204 10 339 46 456
121 59 37 139 121 132 138 -2 7 -13 38 -23 70 -15 48 -20 56 -30 43 -10 -14
-20 -14 -102 1 -73 13 -91 20 -95 35 -5 16 -1 18 21 14 143 -28 154 -29 163
-15 12 19 11 46 -1 54 -5 3 -10 -1 -10 -9 0 -19 6 -20 -107 1 -79 14 -93 19
-93 35 0 14 5 18 18 14 42 -12 145 -27 158 -22 19 7 18 30 -3 98 -20 63 -11
59 -119 63 -23 0 -53 10 -71 23 -32 23 -63 85 -63 128 0 36 -25 90 -54 117
-24 22 -24 25 -12 72 11 44 16 50 45 56 19 4 45 19 59 33 l26 25 -25 52 c-41
89 -75 125 -176 192 -168 110 -314 155 -535 164 -109 5 -141 3 -154 -8 -11 -9
-36 -13 -75 -11 l-58 4 -32 -64 c-50 -101 -110 -177 -222 -284 -80 -76 -125
-110 -195 -147 -81 -43 -100 -48 -156 -49 -52 -1 -76 5 -122 27 -107 53 -229
202 -301 367 -20 46 -44 94 -54 107 -11 13 -19 34 -19 47 0 22 -4 24 -47 23
-27 -1 -79 -6 -118 -10z m1323 -846 c28 -13 42 -27 90 -88 14 -18 -2 -130 -23
-160 -11 -15 -24 -35 -30 -44 -5 -9 -14 -16 -20 -16 -5 -1 -29 -6 -52 -13 -34
-10 -52 -10 -85 0 -24 7 -51 11 -61 10 -10 -1 -15 3 -12 8 4 6 -5 24 -19 41
-28 33 -33 49 -39 119 -2 29 2 51 13 64 75 98 145 121 238 79z m480 -2037 c2
-10 -1 -23 -7 -29 -15 -15 -46 16 -37 38 8 21 40 15 44 -9z m-1078 -150 c0
-44 4 -87 9 -94 5 -9 29 -12 82 -10 l74 3 0 60 0 60 -54 -3 c-41 -3 -52 0 -49
10 3 8 24 14 51 16 33 2 47 7 47 18 0 7 6 14 14 14 18 0 32 -186 15 -206 -8
-10 -38 -14 -106 -14 -112 0 -108 -5 -112 141 -2 86 0 98 13 93 13 -5 16 -23
16 -88z m854 79 c8 -21 -3 -45 -20 -45 -18 0 -28 24 -20 45 3 8 12 15 20 15 7
0 16 -7 20 -15z"/>
<path d="M4982 6297 c20 -41 30 -49 39 -35 7 10 9 10 9 1 0 -7 8 -13 17 -13
13 0 11 6 -11 29 -15 16 -36 31 -47 34 -16 4 -17 2 -7 -16z"/>
<path d="M4848 6280 c-32 -29 -32 -30 -8 -26 14 3 29 5 34 5 4 1 6 8 3 15 -4
11 -1 13 10 9 10 -4 14 -2 10 4 -4 6 -1 14 5 16 8 3 6 6 -4 6 -10 1 -32 -12
-50 -29z"/>
<path d="M4801 6170 c0 -28 27 -93 29 -70 1 8 3 23 5 33 2 9 0 17 -4 17 -5 0
-13 10 -19 23 l-11 22 0 -25z"/>
<path d="M5058 6169 c-10 -10 -15 -19 -10 -19 4 0 0 -5 -8 -10 -9 -6 -10 -10
-3 -10 6 0 10 -9 8 -20 -2 -11 0 -20 5 -20 12 0 23 38 14 51 -4 8 -3 9 4 5 8
-5 12 2 12 18 0 30 0 30 -22 5z"/>
<path d="M4918 6063 c-34 -9 -17 -23 27 -23 25 0 45 4 45 9 0 5 -11 8 -25 7
-13 -2 -22 1 -19 5 5 9 1 10 -28 2z"/>
<path d="M4360 7038 c-86 -37 -165 -35 -262 7 -12 5 -18 3 -18 -7 0 -20 66
-49 126 -55 57 -6 182 25 203 51 19 23 -1 25 -49 4z"/>
<path d="M5955 6730 c-10 -11 -32 -24 -49 -28 -25 -7 -33 -16 -42 -49 -11 -37
-10 -43 8 -60 30 -27 48 -68 58 -130 16 -99 57 -135 151 -138 63 -2 73 3 63
29 -5 12 -15 14 -48 10 -82 -12 -146 48 -146 136 0 55 29 107 65 116 35 9 29
37 -7 38 -18 1 -28 -3 -28 -12 0 -9 -7 -12 -20 -9 -15 4 -20 0 -20 -14 0 -12
-5 -16 -15 -12 -17 6 -17 35 0 33 5 -1 13 8 17 20 5 14 14 20 23 16 8 -3 15 0
15 7 0 7 5 4 11 -5 15 -27 31 -21 26 10 -11 65 -30 78 -62 42z"/>
<path d="M5950 6661 c0 -5 5 -13 10 -16 6 -3 10 -2 10 4 0 5 -4 13 -10 16 -5
3 -10 2 -10 -4z"/>
<path d="M6015 6555 c-56 -55 -14 -150 62 -143 41 3 50 15 29 43 -10 14 -17
17 -27 9 -10 -8 -19 -6 -31 8 -10 10 -13 18 -8 18 6 0 10 7 10 16 0 10 6 14
15 10 16 -6 18 5 9 42 -8 29 -29 28 -59 -3z"/>
</g>
</svg>
